<svg width="1024" height="1024" viewBox="0 0 1024 1024" fill="none" xmlns="http://www.w3.org/2000/svg">
<g clip-path="url(#clip0_144_347)">
<g filter="url(#filter0_dd_144_347)">
<path d="M159.201 324.864L53.6003 442.145C31.7297 466.435 33.6908 503.856 57.9806 525.726L360.958 798.529C385.248 820.399 422.669 818.438 444.539 794.148L550.14 676.867C572.011 652.577 570.05 615.156 545.76 593.286L242.782 320.483C218.492 298.613 181.072 300.574 159.201 324.864Z" fill="url(#paint0_linear_144_347)" shape-rendering="crispEdges"/>
<path d="M159.201 324.864L53.6003 442.145C31.7297 466.435 33.6908 503.856 57.9806 525.726L360.958 798.529C385.248 820.399 422.669 818.438 444.539 794.148L550.14 676.867C572.011 652.577 570.05 615.156 545.76 593.286L242.782 320.483C218.492 298.613 181.072 300.574 159.201 324.864Z" stroke="white" stroke-opacity="0.9" stroke-width="7.82828" stroke-linejoin="round" shape-rendering="crispEdges"/>
</g>
<g filter="url(#filter1_dd_144_347)">
<path d="M289.695 244.038L155.857 327.669C128.139 344.989 119.71 381.501 137.03 409.22L353.076 754.966C370.397 782.685 406.908 791.114 434.627 773.793L568.464 690.163C596.183 672.842 604.612 636.331 587.292 608.612L371.245 262.866C353.925 235.147 317.413 226.718 289.695 244.038Z" fill="url(#paint1_linear_144_347)" shape-rendering="crispEdges"/>
<path d="M289.695 244.038L155.857 327.669C128.139 344.989 119.71 381.501 137.03 409.22L353.076 754.966C370.397 782.685 406.908 791.114 434.627 773.793L568.464 690.163C596.183 672.842 604.612 636.331 587.292 608.612L371.245 262.866C353.925 235.147 317.413 226.718 289.695 244.038Z" stroke="white" stroke-opacity="0.9" stroke-width="7.82828" stroke-linejoin="round" shape-rendering="crispEdges"/>
</g>
<g filter="url(#filter2_dd_144_347)">
<path d="M437.413 202.313L285.708 245.813C254.289 254.823 236.122 287.596 245.132 319.015L357.508 710.918C366.517 742.337 399.291 760.504 430.71 751.495L582.414 707.994C613.833 698.985 632 666.211 622.991 634.792L510.614 242.889C501.605 211.47 468.832 193.303 437.413 202.313Z" fill="url(#paint2_linear_144_347)" shape-rendering="crispEdges"/>
<path d="M437.413 202.313L285.708 245.813C254.289 254.823 236.122 287.596 245.132 319.015L357.508 710.918C366.517 742.337 399.291 760.504 430.71 751.495L582.414 707.994C613.833 698.985 632 666.211 622.991 634.792L510.614 242.889C501.605 211.47 468.832 193.303 437.413 202.313Z" stroke="white" stroke-opacity="0.9" stroke-width="7.82828" stroke-linejoin="round" shape-rendering="crispEdges"/>
</g>
<g filter="url(#filter3_dd_144_347)">
<path d="M590.909 202.92H433.091C400.406 202.92 373.909 229.417 373.909 262.102V669.799C373.909 702.484 400.406 728.98 433.091 728.98H590.909C623.594 728.98 650.091 702.484 650.091 669.799V262.102C650.091 229.417 623.594 202.92 590.909 202.92Z" fill="url(#paint3_linear_144_347)" shape-rendering="crispEdges"/>
<path d="M590.909 202.92H433.091C400.406 202.92 373.909 229.417 373.909 262.102V669.799C373.909 702.484 400.406 728.98 433.091 728.98H590.909C623.594 728.98 650.091 702.484 650.091 669.799V262.102C650.091 229.417 623.594 202.92 590.909 202.92Z" stroke="white" stroke-opacity="0.9" stroke-width="7.82828" stroke-linejoin="round" shape-rendering="crispEdges"/>
</g>
<g filter="url(#filter4_dd_144_347)">
<path d="M738.291 245.813L586.587 202.313C555.168 193.303 522.394 211.47 513.385 242.889L401.009 634.792C391.999 666.211 410.166 698.985 441.585 707.994L593.29 751.495C624.709 760.504 657.482 742.337 666.491 710.918L778.868 319.015C787.877 287.596 769.71 254.823 738.291 245.813Z" fill="url(#paint4_linear_144_347)" shape-rendering="crispEdges"/>
<path d="M738.291 245.813L586.587 202.313C555.168 193.303 522.394 211.47 513.385 242.889L401.009 634.792C391.999 666.211 410.166 698.985 441.585 707.994L593.29 751.495C624.709 760.504 657.482 742.337 666.491 710.918L778.868 319.015C787.877 287.596 769.71 254.823 738.291 245.813Z" stroke="white" stroke-opacity="0.9" stroke-width="7.82828" stroke-linejoin="round" shape-rendering="crispEdges"/>
</g>
<g filter="url(#filter5_dd_144_347)">
<path d="M868.142 327.669L734.304 244.038C706.586 226.718 670.074 235.147 652.754 262.866L436.708 608.612C419.387 636.331 427.816 672.842 455.535 690.163L589.372 773.793C617.091 791.114 653.602 782.685 670.923 754.966L886.969 409.219C904.29 381.501 895.86 344.989 868.142 327.669Z" fill="url(#paint5_linear_144_347)" shape-rendering="crispEdges"/>
<path d="M868.142 327.669L734.304 244.038C706.586 226.718 670.074 235.147 652.754 262.866L436.708 608.612C419.387 636.331 427.816 672.842 455.535 690.163L589.372 773.793C617.091 791.114 653.602 782.685 670.923 754.966L886.969 409.219C904.29 381.501 895.86 344.989 868.142 327.669Z" stroke="white" stroke-opacity="0.9" stroke-width="7.82828" stroke-linejoin="round" shape-rendering="crispEdges"/>
</g>
<g filter="url(#filter6_dd_144_347)">
<path d="M970.4 442.145L864.799 324.864C842.928 300.574 805.508 298.613 781.218 320.483L478.24 593.286C453.95 615.156 451.989 652.577 473.86 676.867L579.461 794.148C601.331 818.438 638.752 820.399 663.042 798.529L966.019 525.726C990.309 503.856 992.27 466.435 970.4 442.145Z" fill="url(#paint6_linear_144_347)" shape-rendering="crispEdges"/>
<path d="M970.4 442.145L864.799 324.864C842.928 300.574 805.508 298.613 781.218 320.483L478.24 593.286C453.95 615.156 451.989 652.577 473.86 676.867L579.461 794.148C601.331 818.438 638.752 820.399 663.042 798.529L966.019 525.726C990.309 503.856 992.27 466.435 970.4 442.145Z" stroke="white" stroke-opacity="0.9" stroke-width="7.82828" stroke-linejoin="round" shape-rendering="crispEdges"/>
</g>
</g>
<defs>
<filter id="filter0_dd_144_347" x="-24.2277" y="272.011" width="652.196" height="672.843" filterUnits="userSpaceOnUse" color-interpolation-filters="sRGB">
<feFlood flood-opacity="0" result="BackgroundImageFix"/>
<feColorMatrix in="SourceAlpha" type="matrix" values="0 0 0 0 0 0 0 0 0 0 0 0 0 0 0 0 0 0 127 0" result="hardAlpha"/>
<feMorphology radius="29.356" operator="dilate" in="SourceAlpha" result="effect1_dropShadow_144_347"/>
<feOffset dy="68.4974"/>
<feGaussianBlur stdDeviation="14.678"/>
<feComposite in2="hardAlpha" operator="out"/>
<feColorMatrix type="matrix" values="0 0 0 0 0 0 0 0 0 0 0 0 0 0 0 0 0 0 0.15 0"/>
<feBlend mode="normal" in2="BackgroundImageFix" result="effect1_dropShadow_144_347"/>
<feColorMatrix in="SourceAlpha" type="matrix" values="0 0 0 0 0 0 0 0 0 0 0 0 0 0 0 0 0 0 127 0" result="hardAlpha"/>
<feMorphology radius="19.5707" operator="dilate" in="SourceAlpha" result="effect2_dropShadow_144_347"/>
<feOffset dx="-3.91414" dy="19.5707"/>
<feGaussianBlur stdDeviation="14.678"/>
<feComposite in2="hardAlpha" operator="out"/>
<feColorMatrix type="matrix" values="0 0 0 0 0 0 0 0 0 0 0 0 0 0 0 0 0 0 0.1 0"/>
<feBlend mode="normal" in2="effect1_dropShadow_144_347" result="effect2_dropShadow_144_347"/>
<feBlend mode="normal" in="SourceGraphic" in2="effect2_dropShadow_144_347" result="shape"/>
</filter>
<filter id="filter1_dd_144_347" x="65.4031" y="201.767" width="593.517" height="712.152" filterUnits="userSpaceOnUse" color-interpolation-filters="sRGB">
<feFlood flood-opacity="0" result="BackgroundImageFix"/>
<feColorMatrix in="SourceAlpha" type="matrix" values="0 0 0 0 0 0 0 0 0 0 0 0 0 0 0 0 0 0 127 0" result="hardAlpha"/>
<feMorphology radius="29.356" operator="dilate" in="SourceAlpha" result="effect1_dropShadow_144_347"/>
<feOffset dy="68.4974"/>
<feGaussianBlur stdDeviation="14.678"/>
<feComposite in2="hardAlpha" operator="out"/>
<feColorMatrix type="matrix" values="0 0 0 0 0 0 0 0 0 0 0 0 0 0 0 0 0 0 0.15 0"/>
<feBlend mode="normal" in2="BackgroundImageFix" result="effect1_dropShadow_144_347"/>
<feColorMatrix in="SourceAlpha" type="matrix" values="0 0 0 0 0 0 0 0 0 0 0 0 0 0 0 0 0 0 127 0" result="hardAlpha"/>
<feMorphology radius="19.5707" operator="dilate" in="SourceAlpha" result="effect2_dropShadow_144_347"/>
<feOffset dx="-3.91414" dy="19.5707"/>
<feGaussianBlur stdDeviation="14.678"/>
<feComposite in2="hardAlpha" operator="out"/>
<feColorMatrix type="matrix" values="0 0 0 0 0 0 0 0 0 0 0 0 0 0 0 0 0 0 0.1 0"/>
<feBlend mode="normal" in2="effect1_dropShadow_144_347" result="effect2_dropShadow_144_347"/>
<feBlend mode="normal" in="SourceGraphic" in2="effect2_dropShadow_144_347" result="shape"/>
</filter>
<filter id="filter2_dd_144_347" x="180.196" y="166.734" width="507.73" height="718.194" filterUnits="userSpaceOnUse" color-interpolation-filters="sRGB">
<feFlood flood-opacity="0" result="BackgroundImageFix"/>
<feColorMatrix in="SourceAlpha" type="matrix" values="0 0 0 0 0 0 0 0 0 0 0 0 0 0 0 0 0 0 127 0" result="hardAlpha"/>
<feMorphology radius="29.356" operator="dilate" in="SourceAlpha" result="effect1_dropShadow_144_347"/>
<feOffset dy="68.4974"/>
<feGaussianBlur stdDeviation="14.678"/>
<feComposite in2="hardAlpha" operator="out"/>
<feColorMatrix type="matrix" values="0 0 0 0 0 0 0 0 0 0 0 0 0 0 0 0 0 0 0.15 0"/>
<feBlend mode="normal" in2="BackgroundImageFix" result="effect1_dropShadow_144_347"/>
<feColorMatrix in="SourceAlpha" type="matrix" values="0 0 0 0 0 0 0 0 0 0 0 0 0 0 0 0 0 0 127 0" result="hardAlpha"/>
<feMorphology radius="19.5707" operator="dilate" in="SourceAlpha" result="effect2_dropShadow_144_347"/>
<feOffset dx="-3.91414" dy="19.5707"/>
<feGaussianBlur stdDeviation="14.678"/>
<feComposite in2="hardAlpha" operator="out"/>
<feColorMatrix type="matrix" values="0 0 0 0 0 0 0 0 0 0 0 0 0 0 0 0 0 0 0.1 0"/>
<feBlend mode="normal" in2="effect1_dropShadow_144_347" result="effect2_dropShadow_144_347"/>
<feBlend mode="normal" in="SourceGraphic" in2="effect2_dropShadow_144_347" result="shape"/>
</filter>
<filter id="filter3_dd_144_347" x="311.283" y="169.65" width="401.434" height="690.454" filterUnits="userSpaceOnUse" color-interpolation-filters="sRGB">
<feFlood flood-opacity="0" result="BackgroundImageFix"/>
<feColorMatrix in="SourceAlpha" type="matrix" values="0 0 0 0 0 0 0 0 0 0 0 0 0 0 0 0 0 0 127 0" result="hardAlpha"/>
<feMorphology radius="29.356" operator="dilate" in="SourceAlpha" result="effect1_dropShadow_144_347"/>
<feOffset dy="68.4974"/>
<feGaussianBlur stdDeviation="14.678"/>
<feComposite in2="hardAlpha" operator="out"/>
<feColorMatrix type="matrix" values="0 0 0 0 0 0 0 0 0 0 0 0 0 0 0 0 0 0 0.15 0"/>
<feBlend mode="normal" in2="BackgroundImageFix" result="effect1_dropShadow_144_347"/>
<feColorMatrix in="SourceAlpha" type="matrix" values="0 0 0 0 0 0 0 0 0 0 0 0 0 0 0 0 0 0 127 0" result="hardAlpha"/>
<feMorphology radius="19.5707" operator="dilate" in="SourceAlpha" result="effect2_dropShadow_144_347"/>
<feOffset dx="-3.91414" dy="19.5707"/>
<feGaussianBlur stdDeviation="14.678"/>
<feComposite in2="hardAlpha" operator="out"/>
<feColorMatrix type="matrix" values="0 0 0 0 0 0 0 0 0 0 0 0 0 0 0 0 0 0 0.1 0"/>
<feBlend mode="normal" in2="effect1_dropShadow_144_347" result="effect2_dropShadow_144_347"/>
<feBlend mode="normal" in="SourceGraphic" in2="effect2_dropShadow_144_347" result="shape"/>
</filter>
<filter id="filter4_dd_144_347" x="336.073" y="166.734" width="507.73" height="718.194" filterUnits="userSpaceOnUse" color-interpolation-filters="sRGB">
<feFlood flood-opacity="0" result="BackgroundImageFix"/>
<feColorMatrix in="SourceAlpha" type="matrix" values="0 0 0 0 0 0 0 0 0 0 0 0 0 0 0 0 0 0 127 0" result="hardAlpha"/>
<feMorphology radius="29.356" operator="dilate" in="SourceAlpha" result="effect1_dropShadow_144_347"/>
<feOffset dy="68.4974"/>
<feGaussianBlur stdDeviation="14.678"/>
<feComposite in2="hardAlpha" operator="out"/>
<feColorMatrix type="matrix" values="0 0 0 0 0 0 0 0 0 0 0 0 0 0 0 0 0 0 0.15 0"/>
<feBlend mode="normal" in2="BackgroundImageFix" result="effect1_dropShadow_144_347"/>
<feColorMatrix in="SourceAlpha" type="matrix" values="0 0 0 0 0 0 0 0 0 0 0 0 0 0 0 0 0 0 127 0" result="hardAlpha"/>
<feMorphology radius="19.5707" operator="dilate" in="SourceAlpha" result="effect2_dropShadow_144_347"/>
<feOffset dx="-3.91414" dy="19.5707"/>
<feGaussianBlur stdDeviation="14.678"/>
<feComposite in2="hardAlpha" operator="out"/>
<feColorMatrix type="matrix" values="0 0 0 0 0 0 0 0 0 0 0 0 0 0 0 0 0 0 0.1 0"/>
<feBlend mode="normal" in2="effect1_dropShadow_144_347" result="effect2_dropShadow_144_347"/>
<feBlend mode="normal" in="SourceGraphic" in2="effect2_dropShadow_144_347" result="shape"/>
</filter>
<filter id="filter5_dd_144_347" x="365.08" y="201.767" width="593.517" height="712.152" filterUnits="userSpaceOnUse" color-interpolation-filters="sRGB">
<feFlood flood-opacity="0" result="BackgroundImageFix"/>
<feColorMatrix in="SourceAlpha" type="matrix" values="0 0 0 0 0 0 0 0 0 0 0 0 0 0 0 0 0 0 127 0" result="hardAlpha"/>
<feMorphology radius="29.356" operator="dilate" in="SourceAlpha" result="effect1_dropShadow_144_347"/>
<feOffset dy="68.4974"/>
<feGaussianBlur stdDeviation="14.678"/>
<feComposite in2="hardAlpha" operator="out"/>
<feColorMatrix type="matrix" values="0 0 0 0 0 0 0 0 0 0 0 0 0 0 0 0 0 0 0.15 0"/>
<feBlend mode="normal" in2="BackgroundImageFix" result="effect1_dropShadow_144_347"/>
<feColorMatrix in="SourceAlpha" type="matrix" values="0 0 0 0 0 0 0 0 0 0 0 0 0 0 0 0 0 0 127 0" result="hardAlpha"/>
<feMorphology radius="19.5707" operator="dilate" in="SourceAlpha" result="effect2_dropShadow_144_347"/>
<feOffset dx="-3.91414" dy="19.5707"/>
<feGaussianBlur stdDeviation="14.678"/>
<feComposite in2="hardAlpha" operator="out"/>
<feColorMatrix type="matrix" values="0 0 0 0 0 0 0 0 0 0 0 0 0 0 0 0 0 0 0.1 0"/>
<feBlend mode="normal" in2="effect1_dropShadow_144_347" result="effect2_dropShadow_144_347"/>
<feBlend mode="normal" in="SourceGraphic" in2="effect2_dropShadow_144_347" result="shape"/>
</filter>
<filter id="filter6_dd_144_347" x="396.032" y="272.012" width="652.196" height="672.842" filterUnits="userSpaceOnUse" color-interpolation-filters="sRGB">
<feFlood flood-opacity="0" result="BackgroundImageFix"/>
<feColorMatrix in="SourceAlpha" type="matrix" values="0 0 0 0 0 0 0 0 0 0 0 0 0 0 0 0 0 0 127 0" result="hardAlpha"/>
<feMorphology radius="29.356" operator="dilate" in="SourceAlpha" result="effect1_dropShadow_144_347"/>
<feOffset dy="68.4974"/>
<feGaussianBlur stdDeviation="14.678"/>
<feComposite in2="hardAlpha" operator="out"/>
<feColorMatrix type="matrix" values="0 0 0 0 0 0 0 0 0 0 0 0 0 0 0 0 0 0 0.15 0"/>
<feBlend mode="normal" in2="BackgroundImageFix" result="effect1_dropShadow_144_347"/>
<feColorMatrix in="SourceAlpha" type="matrix" values="0 0 0 0 0 0 0 0 0 0 0 0 0 0 0 0 0 0 127 0" result="hardAlpha"/>
<feMorphology radius="19.5707" operator="dilate" in="SourceAlpha" result="effect2_dropShadow_144_347"/>
<feOffset dx="-3.91414" dy="19.5707"/>
<feGaussianBlur stdDeviation="14.678"/>
<feComposite in2="hardAlpha" operator="out"/>
<feColorMatrix type="matrix" values="0 0 0 0 0 0 0 0 0 0 0 0 0 0 0 0 0 0 0.1 0"/>
<feBlend mode="normal" in2="effect1_dropShadow_144_347" result="effect2_dropShadow_144_347"/>
<feBlend mode="normal" in="SourceGraphic" in2="effect2_dropShadow_144_347" result="shape"/>
</filter>
<linearGradient id="paint0_linear_144_347" x1="14" y1="486.126" x2="404.939" y2="838.129" gradientUnits="userSpaceOnUse">
<stop stop-color="#FFC0C0"/>
<stop offset="0.18" stop-color="#FF7A7A"/>
<stop offset="1" stop-color="#EF2730"/>
</linearGradient>
<linearGradient id="paint1_linear_144_347" x1="105.668" y1="359.031" x2="384.438" y2="805.155" gradientUnits="userSpaceOnUse">
<stop stop-color="#FFE0B0"/>
<stop offset="0.18" stop-color="#FFB454"/>
<stop offset="1" stop-color="#F77F00"/>
</linearGradient>
<linearGradient id="paint2_linear_144_347" x1="228.819" y1="262.126" x2="373.821" y2="767.808" gradientUnits="userSpaceOnUse">
<stop stop-color="#FFF3B0"/>
<stop offset="0.18" stop-color="#FFE14D"/>
<stop offset="1" stop-color="#F5B800"/>
</linearGradient>
<linearGradient id="paint3_linear_144_347" x1="373.909" y1="202.92" x2="373.909" y2="728.98" gradientUnits="userSpaceOnUse">
<stop stop-color="#C2F7D4"/>
<stop offset="0.18" stop-color="#5CE08A"/>
<stop offset="1" stop-color="#1BB257"/>
</linearGradient>
<linearGradient id="paint4_linear_144_347" x1="529.698" y1="186" x2="384.696" y2="691.682" gradientUnits="userSpaceOnUse">
<stop stop-color="#C4F2FB"/>
<stop offset="0.18" stop-color="#4FD8F0"/>
<stop offset="1" stop-color="#12AECE"/>
</linearGradient>
<linearGradient id="paint5_linear_144_347" x1="684.115" y1="212.677" x2="405.346" y2="658.801" gradientUnits="userSpaceOnUse">
<stop stop-color="#BFD6FF"/>
<stop offset="0.18" stop-color="#5B9BFF"/>
<stop offset="1" stop-color="#1F5FE0"/>
</linearGradient>
<linearGradient id="paint6_linear_144_347" x1="825.198" y1="280.883" x2="434.26" y2="632.886" gradientUnits="userSpaceOnUse">
<stop stop-color="#C9A9FF"/>
<stop offset="0.18" stop-color="#9D6BFF"/>
<stop offset="1" stop-color="#B026C8"/>
</linearGradient>
<clipPath id="clip0_144_347">
<rect width="1024" height="1024" fill="white"/>
</clipPath>
</defs>
</svg>
